<svg width="28" height="28" viewBox="0 0 28 28" fill="none" xmlns="http://www.w3.org/2000/svg">
<rect width="28" height="28" fill="#1E1E1E"/>
<g id="Desktop - 1">
<rect width="1440" height="1024" transform="translate(-1248 -124)" fill="white"/>
<g id="Frame 6">
<rect width="1440" height="96" transform="translate(-1248 -34)" fill="#E3E3E3"/>
<g id="Frame 5">
<g id="moon" clip-path="url(#clip0_0_1)">
<path id="Vector" d="M24.4868 22.501L24.875 22.8161L24.4868 22.501C24.5152 22.466 24.5227 22.4365 24.5237 22.4127C24.5249 22.3856 24.5175 22.3537 24.4992 22.3232C24.4808 22.2927 24.4558 22.2707 24.4306 22.2586C24.4084 22.2479 24.3789 22.2409 24.3362 22.249C17.2347 23.6015 10.7127 18.1561 10.7127 10.9869C10.7127 6.85724 12.9238 3.05953 16.5161 1.01521L16.7623 1.44779L16.5161 1.0152C16.6424 0.943318 16.6083 0.751942 16.4673 0.725773L24.4868 22.501ZM24.4868 22.501C21.9665 25.6061 18.1639 27.5 14 27.5M24.4868 22.501L14 27.5M14 27.5C6.53869 27.5 0.5 21.4519 0.5 14C0.5 6.53869 6.54808 0.5 14 0.5V27.5Z" fill="white" stroke="#004F86"/>
</g>
</g>
</g>
</g>
<defs>
<clipPath id="clip0_0_1">
<rect width="28" height="28" fill="white"/>
</clipPath>
</defs>
</svg>
