<svg width="28" height="28" viewBox="0 0 28 28" fill="none" xmlns="http://www.w3.org/2000/svg">
<g id="search" clip-path="url(#clip0_1_44)">
<path id="Vector" d="M19.9479 18.0652L19.3161 18.8732H20.3418H21.2331C21.4523 18.8732 21.6581 18.9585 21.8091 19.1095L27.2591 24.5595C27.2593 24.5597 27.2596 24.56 27.2598 24.5602C27.5745 24.8792 27.5743 25.3946 27.2555 25.7134L25.708 27.2609L25.7061 27.2628C25.3943 27.578 24.8811 27.5807 24.5613 27.2609L19.1095 21.8091C18.9585 21.6581 18.8732 21.4523 18.8732 21.2331V20.3418V19.3161L18.0652 19.9479C16.22 21.3906 13.8998 22.2478 11.3739 22.2478C5.36705 22.2478 0.5 17.3807 0.5 11.3739C0.5 5.36705 5.36705 0.5 11.3739 0.5C17.3807 0.5 22.2478 5.36705 22.2478 11.3739C22.2478 13.8998 21.3906 16.22 19.9479 18.0652ZM3.87457 11.3739C3.87457 15.5218 7.23197 18.8732 11.3739 18.8732C15.5218 18.8732 18.8732 15.5158 18.8732 11.3739C18.8732 7.226 15.5158 3.87457 11.3739 3.87457C7.226 3.87457 3.87457 7.23197 3.87457 11.3739Z" fill="white" stroke="#004F86"/>
</g>
<defs>
<clipPath id="clip0_1_44">
<rect width="28" height="28" fill="white"/>
</clipPath>
</defs>
</svg>
